<svg width="60" height="71" viewBox="0 0 60 71" fill="none" xmlns="http://www.w3.org/2000/svg">
<path d="M27.3105 44.0244L20.3902 35.8293L22.9853 32.7561L27.3105 37.8781L36.9495 26.4635L39.5447 29.5366L27.3105 44.0244ZM16.065 67.4391C15.0764 67.4391 14.2113 67 13.4699 66.122C12.7284 65.2439 12.3577 64.2196 12.3577 63.0488V7.43907C12.3577 6.26834 12.7284 5.24395 13.4699 4.3659C14.2113 3.48785 15.0764 3.04883 16.065 3.04883H43.252C44.2406 3.04883 45.1056 3.48785 45.8471 4.3659C46.5886 5.24395 46.9593 6.26834 46.9593 7.43907V63.0488C46.9593 64.2196 46.5886 65.2439 45.8471 66.122C45.1056 67 44.2406 67.4391 43.252 67.4391H16.065ZM16.065 56.4635H43.252V14.0244H16.065V56.4635ZM16.065 60.8537V63.0488H43.252V60.8537H16.065ZM16.065 9.63419H43.252V7.43907H16.065V9.63419ZM16.065 7.43907V9.63419V7.43907ZM16.065 63.0488V60.8537V63.0488Z" fill="#271B80"/>
</svg>
