<svg width="96" height="96" viewBox="0 0 96 96" fill="none" xmlns="http://www.w3.org/2000/svg">
<path d="M45.6214 77.8152L38.2073 73.4078C37.4137 72.9889 37.3436 72.663 37.9972 72.4279C39.1162 72.0555 40.2353 71.5433 41.3546 70.8897C41.5399 70.7974 41.727 70.8192 41.9141 70.9598L47.6497 74.3172C47.8826 74.457 48.1147 74.457 48.3487 74.3172L70.5923 61.4464C70.8247 61.3538 70.9417 61.167 70.9417 60.8877V35.1469C70.9417 34.8668 70.8247 34.6564 70.5923 34.5169L48.3487 21.6462C48.1147 21.5063 47.8822 21.5063 47.6497 21.6462L25.3369 34.5169C25.1025 34.6564 24.987 34.8668 24.987 35.1469V60.8877C24.987 61.167 25.1029 61.3538 25.3369 61.4464L31.4921 65.0149C33.1245 65.7135 34.4179 65.7844 35.3741 65.2238C36.3293 64.665 36.8081 63.8494 36.8081 62.7758V37.314C36.8081 36.8952 37.0181 36.6855 37.4377 36.6855H40.3058C40.725 36.6855 40.9354 36.8952 40.9354 37.314V62.775C40.9354 64.9684 40.3511 66.6698 39.1864 67.8822C38.0205 69.0942 36.3885 69.7009 34.2904 69.7009C32.7971 69.7009 31.095 69.2348 29.184 68.3014L23.3081 64.944C21.7699 64.0594 21 62.706 21 60.8873V35.1469C21 33.3274 21.7699 31.9755 23.3081 31.0898L45.6214 18.2194C47.2065 17.3344 48.7695 17.3344 50.3081 18.2194L72.6214 31.0898C74.2065 31.9755 75 33.3278 75 35.1469V60.8877C75 62.7064 74.2065 64.0598 72.6214 64.944L50.3779 77.8152C49.6316 78.234 48.8393 78.4448 48 78.4448C47.1607 78.4448 46.3672 78.234 45.6214 77.8152ZM48.9094 60.0132C47.2763 59.5227 46.0646 58.8469 45.2719 57.984C44.4784 57.1215 43.9076 56.2474 43.5581 55.362C43.2083 54.4759 43.0335 53.5193 43.0335 52.4937C43.0335 52.0729 43.2664 51.864 43.7329 51.864H46.6005C46.9736 51.864 47.1836 52.0275 47.2305 52.3542C47.463 53.9393 48.0926 55.0812 49.119 55.7813C50.1442 56.4803 52.0568 56.8305 54.8546 56.8305C57.1856 56.8305 58.8874 56.541 59.9606 55.9564C61.0324 55.3737 61.5698 54.4763 61.5698 53.2635C61.5698 52.7033 61.4299 52.248 61.1497 51.8997C60.87 51.5494 60.1357 51.2119 58.9466 50.8845C57.7571 50.5587 55.9969 50.2793 53.6659 50.0453C50.3077 49.7202 47.8249 49.0658 46.2165 48.087C44.6074 47.1072 43.8034 45.4763 43.8034 43.1899C43.8034 40.9519 44.7004 39.1928 46.4963 37.9088C48.291 36.6267 50.7739 35.9858 53.9456 35.9858C57.5359 35.9858 60.2407 36.6267 62.0591 37.9088C63.8779 39.1928 64.8802 41.1619 65.067 43.8203C65.1131 44.0063 65.067 44.1702 64.9271 44.3097C64.7873 44.4495 64.6234 44.5204 64.4378 44.5204H61.5701C61.1959 44.5204 60.9862 44.3569 60.9405 44.0299C60.567 42.4909 59.8792 41.418 58.8773 40.8124C57.8741 40.2072 56.2298 39.9027 53.946 39.9027C50.1218 39.9027 48.2104 40.9523 48.2104 43.0508C48.2104 43.6579 48.3731 44.1 48.7001 44.379C49.026 44.6603 49.7141 44.9292 50.7634 45.1838C51.8126 45.441 53.5028 45.7324 55.8345 46.0579C59.5181 46.5724 62.13 47.2943 63.669 48.2269C65.208 49.1595 65.9771 50.7694 65.9771 53.0532C65.9771 55.4779 65.0089 57.3672 63.0742 58.7187C61.1389 60.0717 58.3988 60.747 54.8554 60.747C52.5221 60.747 50.5406 60.5029 48.9094 60.0132Z" fill="black"/>
</svg>
