<svg width="64" height="64" viewBox="0 0 64 64" fill="none" xmlns="http://www.w3.org/2000/svg">
<path d="M43.1149 53.7031C42.7833 53.5013 42.4943 53.2308 42.2646 52.9029C42.1585 52.7517 42.0689 52.5919 41.9947 52.4267H4.31035V15.2829H55.4615V39.5365C56.5534 39.6351 57.4697 40.3523 57.8544 41.3344C58.195 41.1477 58.5746 41.0323 58.9736 40.9971C59.2436 40.9737 59.5116 40.9904 59.7717 41.0418V6.02956C59.7717 4.04889 58.1606 2.4375 56.18 2.4375H3.5919C1.61139 2.4375 0 4.04889 0 6.02956V53.1453C0 55.1259 1.61139 56.7372 3.5919 56.7372H42.7875C42.4816 56.1178 42.4091 55.4185 42.5891 54.7458C42.6929 54.3589 42.8724 54.0059 43.1149 53.7031ZM51.517 8.46927C51.517 7.73681 52.1108 7.14288 52.8433 7.14288H54.1695C54.9021 7.14288 55.4957 7.73666 55.4957 8.46927V9.97245C55.4957 10.7049 54.902 11.2987 54.1695 11.2987H52.8433C52.1107 11.2987 51.517 10.7049 51.517 9.97245V8.46927ZM45.3499 8.46927C45.3499 7.73681 45.9437 7.14288 46.6762 7.14288H48.0026C48.7352 7.14288 49.3288 7.73666 49.3288 8.46927V9.97245C49.3288 10.7049 48.735 11.2987 48.0026 11.2987H46.6762C45.9437 11.2987 45.3499 10.7049 45.3499 9.97245V8.46927ZM39.1827 8.46927C39.1827 7.73681 39.7766 7.14288 40.5089 7.14288H41.8351C42.5678 7.14288 43.1615 7.73666 43.1615 8.46927V9.97245C43.1615 10.7049 42.5678 11.2987 41.8351 11.2987H40.5089C39.7766 11.2987 39.1827 10.7049 39.1827 9.97245V8.46927Z" fill="black"/>
<path d="M63.9914 51.1735L63.5929 48.9133C63.5391 48.609 63.2491 48.4057 62.9444 48.4593L60.9345 48.8135C60.6932 48.2473 60.385 47.7169 60.0193 47.2315L61.3321 45.6666C61.4275 45.5532 61.474 45.4062 61.4612 45.2582C61.4481 45.1102 61.3768 44.9736 61.2631 44.8781L59.5052 43.4028C59.3915 43.3074 59.2441 43.2611 59.0963 43.274C58.9483 43.287 58.8118 43.3581 58.7164 43.4718L57.4048 45.0355C56.8663 44.7612 56.2904 44.5496 55.687 44.41V42.369C55.687 42.0599 55.4363 41.8091 55.1272 41.8091H52.832C52.523 41.8091 52.2722 42.0599 52.2722 42.369V44.41C51.6685 44.5495 51.0932 44.7612 50.5544 45.0355L49.2425 43.472C49.0438 43.2351 48.6908 43.2044 48.4538 43.4029L46.6958 44.8781C46.5821 44.9736 46.5109 45.1102 46.4978 45.2582C46.485 45.4062 46.5313 45.5534 46.6267 45.6671L47.9397 47.2317C47.5746 47.717 47.2658 48.2476 47.0245 48.8137L45.0146 48.4593C44.7107 48.4058 44.4201 48.609 44.3661 48.9133L43.9677 51.1735C43.942 51.3197 43.9753 51.4699 44.0602 51.5917C44.1457 51.7135 44.2751 51.7962 44.4214 51.822L46.4329 52.1765C46.4657 52.7997 46.5742 53.4026 46.7488 53.9767L44.9809 54.9971C44.8523 55.071 44.7586 55.1935 44.72 55.3368C44.6816 55.4802 44.7019 55.6329 44.7759 55.7615L45.9234 57.7491C45.9973 57.8777 46.1198 57.9714 46.2631 58.0098C46.3108 58.0226 46.3594 58.0289 46.408 58.0289C46.5054 58.0289 46.6019 58.0036 46.6879 57.9539L48.4571 56.9323C48.8732 57.3781 49.3429 57.7732 49.8562 58.1072L49.1576 60.0265C49.107 60.1661 49.1136 60.32 49.1763 60.4546C49.2391 60.5892 49.3527 60.6933 49.4921 60.7439L51.6484 61.5286C51.7103 61.5511 51.7752 61.5627 51.84 61.5627C51.9207 61.5627 52.002 61.5452 52.0768 61.5101C52.2114 61.4475 52.3152 61.3338 52.3659 61.1942L53.0644 59.275C53.3639 59.3112 53.6687 59.33 53.9779 59.33C54.2871 59.33 54.5919 59.3109 54.8914 59.275L55.5901 61.1942C55.6406 61.3338 55.7449 61.4475 55.8792 61.5101C55.9538 61.545 56.0348 61.5627 56.116 61.5627C56.1806 61.5627 56.2456 61.5514 56.3074 61.5286L58.464 60.7439C58.6031 60.6933 58.7168 60.5889 58.7795 60.4546C58.8422 60.32 58.8489 60.1661 58.7982 60.0265L58.0996 58.1075C58.6124 57.7735 59.0821 57.3781 59.4987 56.9326L61.2679 57.9542C61.3537 58.0036 61.4504 58.0292 61.5478 58.0292C61.5962 58.0292 61.6453 58.0226 61.6927 58.0101C61.8361 57.9717 61.9583 57.8777 62.0324 57.7494L63.1799 55.7615C63.2539 55.6332 63.2742 55.4802 63.2358 55.3368C63.1972 55.1938 63.1035 55.0713 62.9749 54.9971L61.2073 53.977C61.3819 53.4028 61.4901 52.7998 61.5229 52.1768L63.5344 51.8222C63.6807 51.7964 63.8105 51.7136 63.8956 51.5919C63.9838 51.4699 64.0172 51.3197 63.9914 51.1735ZM53.9797 54.7651C52.2796 54.7651 50.9011 53.3866 50.9011 51.6864C50.9011 49.9861 52.2798 48.6078 53.9797 48.6078C55.68 48.6078 57.0585 49.9861 57.0585 51.6864C57.0585 53.3866 55.68 54.7651 53.9797 54.7651Z" fill="black"/>
<path d="M25.1006 35.8723C25.1006 35.148 24.6761 34.4828 24.0191 34.1777L18.0059 31.3837L24.0192 28.5895C24.6761 28.2841 25.1006 27.619 25.1006 26.8951V26.8465C25.1006 26.2048 24.7776 25.6158 24.2372 25.2715C23.9382 25.0805 23.5899 24.9795 23.2304 24.9795C22.9594 24.9795 22.6874 25.0391 22.444 25.1522L12.8305 29.6227C12.1738 29.9281 11.7496 30.5932 11.7496 31.317V31.4506C11.7496 32.1735 12.1736 32.8382 12.8306 33.1451L22.445 37.6161C22.6936 37.7311 22.9583 37.7895 23.2317 37.7895C23.5881 37.7895 23.9353 37.6883 24.2372 37.4963C24.7779 37.1506 25.1007 36.562 25.1007 35.9212L25.1006 35.8723Z" fill="black"/>
<path d="M34.5858 20.4243C34.2351 19.9442 33.6711 19.6577 33.0768 19.6577H33.029C32.213 19.6577 31.4976 20.1797 31.249 20.9556L24.915 40.5812C24.7347 41.1479 24.8362 41.772 25.1865 42.2519C25.5371 42.7317 26.1012 43.0184 26.6954 43.0184H26.7434C27.5591 43.0184 28.2741 42.4962 28.5223 41.7205L34.8556 22.0964C35.0375 21.5302 34.9366 20.9052 34.5858 20.4243Z" fill="black"/>
<path d="M46.9413 29.6224L37.3276 25.1519C37.085 25.0391 36.8134 24.9795 36.5424 24.9795C36.1831 24.9795 35.8347 25.0802 35.5358 25.2709C34.9945 25.6158 34.6715 26.2047 34.6715 26.8463V26.8949C34.6715 27.6183 35.0957 28.2835 35.7531 28.5901L41.7662 31.3837L35.753 34.1775C35.096 34.4826 34.6715 35.1479 34.6715 35.8721V35.921C34.6715 36.5619 34.9945 37.1503 35.5355 37.4963C35.8363 37.688 36.1838 37.7894 36.5406 37.7894C36.8137 37.7894 37.0782 37.731 37.3284 37.6155L46.9425 33.1445C47.5989 32.8383 48.0227 32.1735 48.0227 31.4507V31.317C48.0223 30.5931 47.5981 29.928 46.9413 29.6224Z" fill="black"/>
</svg>
