<svg width="64" height="64" viewBox="0 0 64 64" fill="none" xmlns="http://www.w3.org/2000/svg">
<path d="M24.066 38.0091L23.9302 38.4174C23.794 38.9624 23.566 39.3944 23.2495 39.7119C22.8405 40.1201 22.1817 40.3241 21.2742 40.3241C20.5932 40.3241 20.0252 40.1659 19.5712 39.8476C19.1167 39.5306 18.6402 38.9624 18.1415 38.1449C17.9592 37.8279 17.8572 37.6686 17.8352 37.6686C17.8115 37.6686 17.0965 38.1006 15.6897 38.9624L13.5787 40.2564L13.7825 40.5289C14.7365 42.5269 16.257 43.8659 18.3457 44.5469C20.661 45.3184 22.9082 45.2724 25.0877 44.4106C27.4937 43.4114 28.878 41.4374 29.2415 38.4859C29.2865 38.1684 29.3097 34.8764 29.3097 28.6114V19.2134H26.6537H24.066V28.6114V38.0091Z" fill="black"/>
<path d="M35.6434 21.052C34.3722 22.3233 33.7369 23.9353 33.7369 25.8865C33.7369 28.747 35.0529 30.972 37.6862 32.5608C38.3214 32.9695 39.4112 33.492 40.9554 34.1273C42.8619 34.9443 44.0422 35.6033 44.4967 36.1023C45.2679 36.9193 45.4264 37.8048 44.9732 38.7578C44.8367 38.9858 44.6772 39.19 44.4967 39.3708C43.8154 40.052 42.8619 40.3925 41.6362 40.3925C39.5937 40.3925 37.9587 39.4845 36.7329 37.6685C36.5507 37.3513 36.4489 37.1918 36.4267 37.1918C36.4034 37.1918 35.7112 37.5898 34.3492 38.3838C32.9872 39.1788 32.2824 39.5985 32.2384 39.6435C32.1927 39.689 32.2604 39.8475 32.4427 40.12C34.0312 42.844 36.5507 44.433 40.0017 44.887C41.1362 45.0678 42.2712 45.0678 43.4067 44.887C45.5397 44.6148 47.2204 43.8878 48.4459 42.708C49.7619 41.4373 50.4207 39.757 50.4207 37.6685C50.4207 36.3983 50.1709 35.2625 49.6722 34.2633C49.3989 33.628 48.9909 33.0375 48.4459 32.4925C47.4009 31.449 45.5624 30.3595 42.9304 29.2238C41.0679 28.4525 39.9334 27.8398 39.5247 27.3853C39.0709 26.8863 38.8667 26.296 38.9122 25.6148C38.9567 25.0698 39.1387 24.6168 39.4569 24.253C39.9557 23.7535 40.6374 23.5035 41.4999 23.5035C42.4532 23.5035 43.2247 23.8218 43.8157 24.4573C44.1324 24.7293 44.3707 25.0018 44.5307 25.2745C44.6894 25.5468 44.7914 25.6833 44.8369 25.6833C44.9277 25.6385 45.6204 25.196 46.9139 24.3553C48.2082 23.516 48.8552 23.0848 48.8552 23.061C48.8552 23.0388 48.7187 22.8005 48.4464 22.3463C47.8104 21.4383 47.1069 20.7353 46.3357 20.2353C45.2459 19.4638 43.9062 19.033 42.3179 18.9413C41.7269 18.8965 41.1602 18.8965 40.6149 18.9413C38.5714 19.077 36.9137 19.7813 35.6434 21.052Z" fill="black"/>
<rect x="1" y="1" width="62" height="62" stroke="black" stroke-width="2"/>
</svg>
