<svg width="64" height="64" viewBox="0 0 64 64" fill="none" xmlns="http://www.w3.org/2000/svg">
<path d="M46.3855 41.8669C46.3615 41.7234 46.2595 41.5611 46.0795 41.3811C45.8995 41.2016 45.6413 41.0036 45.3058 40.7874C44.9693 40.5721 44.802 40.4521 44.802 40.4279C43.5783 39.5164 42.7983 38.9526 42.4628 38.7361C42.2948 38.6406 42.0005 38.5086 41.5813 38.3406C41.1613 38.1731 40.9273 38.0769 40.8795 38.0527C40.7593 38.0054 40.5015 37.9151 40.1058 37.7829C39.7098 37.6516 39.3678 37.5194 39.08 37.3871C38.7923 37.2559 38.6 37.1176 38.504 36.9731C38.0723 36.3499 37.5198 35.2344 36.8488 33.6261C36.7048 33.2434 36.4468 32.6429 36.0748 31.8271C35.7028 31.0119 35.4328 30.3999 35.2655 29.9919C35.1933 29.8246 35.0973 29.5481 34.9775 29.1644C34.8573 28.7809 34.7373 28.4809 34.6178 28.2644C32.8665 24.6659 30.4553 21.8224 27.3845 19.7354C26.2088 18.9439 25.0933 18.3809 24.0378 18.0439C23.7975 17.9484 23.4135 17.8889 22.8863 17.8644C22.3583 17.8404 21.9745 17.8046 21.7345 17.7564H21.267C21.099 17.6839 20.8828 17.5289 20.6193 17.2881C20.3548 17.0491 20.199 16.9169 20.1513 16.8924C19.5758 16.4606 18.82 16.0414 17.8843 15.6326C17.116 15.2971 16.6248 15.2254 16.409 15.4174C16.241 15.4654 16.133 15.5731 16.0853 15.7411C15.965 15.9566 16.0008 16.3051 16.193 16.7849C16.289 17.0246 16.4093 17.2471 16.5528 17.4501C16.6968 17.6541 16.8588 17.8819 17.0385 18.1339C17.2183 18.3859 17.3563 18.5724 17.4525 18.6914C18.076 19.6274 18.4718 20.2751 18.64 20.6349C18.8315 21.1146 19.0718 21.8466 19.3598 22.8299C19.6473 23.8139 19.8753 24.5214 20.0435 24.9529C20.307 25.5531 20.5953 26.0929 20.9073 26.5726C20.9305 26.5971 21.0628 26.7406 21.303 27.0044C21.5425 27.2686 21.6865 27.4964 21.7348 27.6879C21.8308 27.7606 21.8548 27.9524 21.807 28.2641C21.7585 28.5759 21.7045 28.8339 21.645 29.0381C21.5845 29.2419 21.4948 29.5004 21.3748 29.8114C21.2545 30.1236 21.1825 30.3156 21.159 30.3874C20.871 31.4196 20.7508 32.5594 20.7993 33.8061C20.847 35.0539 21.0388 36.1334 21.3748 37.0446C21.3985 37.0691 21.429 37.1349 21.465 37.2426C21.501 37.3511 21.5245 37.4229 21.5368 37.4586C21.5485 37.4946 21.5785 37.5667 21.627 37.6749C21.6748 37.7826 21.7105 37.8544 21.7348 37.8901C21.7585 37.9261 21.7943 37.9866 21.843 38.0706C21.8908 38.1546 21.933 38.2141 21.969 38.2501C22.005 38.2861 22.0528 38.3404 22.113 38.4121C22.1725 38.4846 22.2265 38.5326 22.275 38.5564C22.3228 38.5802 22.3765 38.6099 22.4365 38.6456C22.4965 38.6821 22.5743 38.7121 22.6708 38.7356C22.6708 38.7119 22.6945 38.6884 22.7425 38.6639C22.7663 38.5204 22.802 38.2024 22.8508 37.7106C22.8985 37.2194 22.9405 36.8649 22.9768 36.6486C23.0128 36.4334 23.0665 36.1574 23.1388 35.8211C23.2105 35.4851 23.2943 35.1856 23.3905 34.9212C23.486 34.6576 23.6785 34.3336 23.9663 33.9494C24.2543 33.5659 24.4343 33.3259 24.506 33.2296C24.5783 33.2784 24.6378 33.3501 24.6858 33.4459C24.734 33.5422 24.7698 33.6619 24.794 33.8054C24.8178 33.9491 24.8418 34.0576 24.8663 34.1294C25.3698 35.3526 25.7053 36.1449 25.8735 36.5047C26.7373 38.2556 27.601 39.7792 28.4645 41.0746C28.8003 41.5306 29.2078 42.0229 29.688 42.5499C29.736 42.5744 29.826 42.6399 29.958 42.7477C30.0895 42.8564 30.1795 42.9579 30.2283 43.0541H30.2643V43.1259C29.9998 43.0054 29.6703 42.7424 29.2745 42.3344C28.8788 41.9264 28.6445 41.6989 28.5728 41.6509C27.229 40.5476 26.2213 39.4191 25.5498 38.2679C25.2858 37.7164 24.974 37.0326 24.6143 36.2166V36.1806C24.5658 36.2286 24.536 36.2886 24.5245 36.3604C24.512 36.4329 24.5 36.5169 24.4883 36.6124C24.476 36.7089 24.4703 36.7929 24.4703 36.8646C24.3985 37.0799 24.332 37.4704 24.2725 38.0344C24.2125 38.5981 24.1223 39.0296 24.0028 39.3294C23.8825 39.6296 23.6663 39.8511 23.355 39.9956C22.515 40.3551 21.6995 39.8641 20.908 38.5204C20.308 37.4644 19.942 36.1574 19.8103 34.5974C19.678 33.0384 19.816 31.5514 20.2243 30.1349C20.2243 30.0876 20.278 29.8111 20.3863 29.3074C20.494 28.8039 20.62 28.4564 20.764 28.2639C20.74 28.1441 20.6918 28.0361 20.62 27.9399C20.548 27.8444 20.4638 27.7481 20.3683 27.6519C20.272 27.5564 20.1998 27.4724 20.152 27.3999C19.9123 27.0644 19.636 26.5611 19.3243 25.8886C19.1808 25.6006 18.7723 24.4739 18.1008 22.5059C18.0528 22.3866 17.993 22.1819 17.9208 21.8946C17.849 21.6069 17.7888 21.3791 17.741 21.2111C17.6208 20.9466 17.225 20.3234 16.5535 19.3394C16.5055 19.2439 16.392 19.0821 16.212 18.8536C16.0318 18.6259 15.8883 18.4341 15.78 18.2784C15.672 18.1224 15.5398 17.9001 15.3843 17.6121C15.228 17.3241 15.126 17.0789 15.0783 16.8749C15.0298 16.6711 14.982 16.4126 14.9343 16.1009C14.8863 15.7891 14.9343 15.5249 15.0783 15.3094C15.27 14.8051 15.558 14.4514 15.942 14.2476C16.3255 14.0444 16.7213 13.9656 17.1295 14.0136C17.537 14.0616 17.9933 14.1819 18.497 14.3734C19.001 14.5661 19.4265 14.7576 19.7745 14.9494C20.122 15.1414 20.464 15.3574 20.8003 15.5966C20.872 15.6454 21.034 15.7829 21.286 16.0106C21.5378 16.2391 21.7235 16.3766 21.8438 16.4246C22.611 16.4726 23.199 16.5086 23.607 16.5324C25.0945 16.9166 26.0778 17.2644 26.558 17.5761C28.621 18.8481 30.3423 20.1971 31.722 21.6244C33.1015 23.0521 34.3908 24.8091 35.591 26.8966C35.7345 27.1609 35.8665 27.4489 35.9868 27.7606C36.1063 28.0721 36.2385 28.4259 36.3825 28.8216C36.5263 29.2174 36.646 29.5239 36.742 29.7391C37.39 31.3466 38.0253 32.7866 38.6495 34.0579C38.7215 34.2014 38.8173 34.4176 38.9373 34.7059C39.057 34.9929 39.165 35.2399 39.2613 35.4429C39.3568 35.6469 39.477 35.8334 39.621 36.0006C39.6688 36.0969 39.8245 36.1931 40.089 36.2887C40.3525 36.3849 40.4965 36.4451 40.5208 36.4689C40.6648 36.5406 41.0303 36.7149 41.6183 36.9907C42.2063 37.2666 42.644 37.5126 42.932 37.7279C44.1068 38.5201 45.379 39.5401 46.7465 40.7866C46.9143 40.9311 47.1243 41.1824 47.3765 41.5421C47.6283 41.9019 47.814 42.1426 47.934 42.2619V42.4781C47.814 42.5261 47.442 42.6462 46.8183 42.8377C46.5308 42.9097 46.1345 42.9754 45.631 43.0356C45.1273 43.0951 44.743 43.1616 44.4795 43.2334C43.6635 43.4734 43.1358 43.6054 42.8963 43.6292L42.9323 43.7019C43.0278 43.9654 43.232 44.2289 43.5438 44.4934C43.8553 44.7569 44.2458 45.0326 44.7133 45.3209C45.1813 45.6087 45.4748 45.8006 45.595 45.8969C46.5788 46.6646 47.3945 47.5037 48.042 48.4156L48.7255 49.1354C48.7735 49.2079 48.8338 49.3391 48.9055 49.5311C48.9778 49.7229 49.0373 49.8552 49.086 49.9277V50.0001C48.9658 49.9521 48.8215 49.8436 48.6538 49.6761C48.4858 49.5081 48.3778 49.4119 48.3298 49.3884C47.4183 48.6441 46.9143 48.2371 46.8183 48.1644C46.5063 47.9726 46.0325 47.7206 45.3968 47.4091C44.7608 47.0974 44.2993 46.8451 44.0113 46.6536C43.7238 46.4609 43.2318 46.0774 42.5363 45.5024C42.104 45.1661 41.696 44.6506 41.3125 43.9546C41.264 43.9066 41.2043 43.7866 41.1325 43.5949C41.0605 43.4031 40.9885 43.2586 40.9165 43.1631C40.9403 43.0196 41.0005 42.9111 41.0965 42.8391C41.1923 42.7674 41.336 42.7079 41.5285 42.6596C41.7205 42.6116 41.8398 42.5756 41.8883 42.5511C43.0145 42.0471 44.5143 41.8194 46.3855 41.8669ZM21.8428 20.5274C21.8905 20.5754 21.9925 20.6594 22.1488 20.7789C22.3048 20.8994 22.4185 21.0071 22.4908 21.1026C22.5145 21.1516 22.5503 21.2349 22.5985 21.3549C22.6468 21.4754 22.6945 21.5589 22.7425 21.6071C22.7425 22.1824 22.5863 22.5911 22.275 22.8304C22.275 22.8549 22.2625 22.8791 22.2388 22.9021C22.1185 22.6629 21.9385 22.2671 21.699 21.7149C21.651 21.6431 21.537 21.4931 21.357 21.2649C21.177 21.0371 21.051 20.8516 20.9793 20.7071H20.9075V20.6351C21.2428 20.5634 21.5548 20.5274 21.8428 20.5274Z" fill="black"/>
<rect x="1" y="1" width="62" height="62" stroke="black" stroke-width="2"/>
</svg>
