<svg width="64" height="64" viewBox="0 0 64 64" fill="none" xmlns="http://www.w3.org/2000/svg">
<path d="M51.3325 22.5901C50.6933 22.3718 50.0496 22.1685 49.4012 21.9801C49.5087 21.5426 49.6079 21.1026 49.6987 20.6601C51.1613 13.5476 50.205 7.81764 46.9412 5.93139C43.8162 4.12139 38.6913 6.00764 33.5213 10.5176C33.0129 10.9626 32.515 11.421 32.0275 11.8926C31.7025 11.5793 31.3692 11.2726 31.0275 10.9726C25.6087 6.15014 20.1775 4.11889 16.9175 6.01139C13.7925 7.82514 12.8638 13.2114 14.18 19.9526C14.3117 20.6193 14.4596 21.2831 14.6237 21.9439C13.855 22.1626 13.1125 22.3964 12.4025 22.6439C6.0575 24.8626 2 28.3414 2 31.9489C2 35.6764 6.355 39.4139 12.9712 41.6801C13.5079 41.8626 14.0496 42.0322 14.5962 42.1889C14.4187 42.8964 14.2617 43.6118 14.125 44.3351C12.875 50.9601 13.85 56.2189 16.9688 58.0214C20.19 59.8826 25.5938 57.9701 30.8612 53.3576C31.2779 52.9926 31.6946 52.6072 32.1113 52.2014C32.6379 52.7106 33.1796 53.2047 33.7363 53.6839C38.8363 58.0814 43.8725 59.8576 46.9863 58.0501C50.205 56.1826 51.2513 50.5326 49.8925 43.6589C49.7883 43.1339 49.6683 42.5981 49.5325 42.0514C49.9125 41.9389 50.2846 41.8226 50.6488 41.7026C57.5238 39.4189 62.0025 35.7264 62.0025 31.9526C62 28.3276 57.8125 24.8264 51.3325 22.5901ZM35.2075 12.4551C39.6362 8.59139 43.7762 7.06639 45.6637 8.15639C47.6725 9.31764 48.4538 14.0001 47.1912 20.1414C47.1079 20.5414 47.0179 20.9401 46.9212 21.3376C44.2783 20.7365 41.5982 20.3122 38.8988 20.0676C37.3532 17.8412 35.6589 15.7218 33.8275 13.7239C34.2758 13.2889 34.735 12.866 35.205 12.4551H35.2075ZM19.7162 35.0314C20.2587 36.0814 20.8258 37.1185 21.4175 38.1426C22.02 39.1876 22.6479 40.2172 23.3013 41.2314C21.4438 41.0295 19.5981 40.732 17.7712 40.3401C18.3013 38.6251 18.9537 36.8439 19.7162 35.0314ZM19.7162 28.9901C18.9662 27.2164 18.3312 25.4714 17.81 23.7864C19.5225 23.4026 21.3475 23.0889 23.25 22.8514C22.6125 23.8464 21.9992 24.856 21.41 25.8801C20.8208 26.9043 20.255 27.941 19.7125 28.9901H19.7162ZM21.0788 32.0114C21.8688 30.3639 22.7196 28.7481 23.6313 27.1639C24.5421 25.5806 25.5117 24.0335 26.54 22.5226C28.325 22.3876 30.155 22.3164 32.0037 22.3164C33.8525 22.3164 35.6938 22.3876 37.4775 22.5239C38.495 24.0314 39.4588 25.5731 40.3688 27.1489C41.2788 28.7247 42.1408 30.3331 42.955 31.9739C42.1517 33.6272 41.2917 35.2497 40.375 36.8414C39.4658 38.4247 38.5075 39.9764 37.5 41.4964C35.7188 41.6214 33.875 41.6901 32 41.6901C30.125 41.6901 28.3162 41.6314 26.5675 41.5176C25.5317 40.0018 24.5542 38.4481 23.635 36.8564C22.7158 35.2647 21.8625 33.6497 21.075 32.0114H21.0788ZM42.5938 38.1251C43.1979 37.0768 43.7779 36.0147 44.3338 34.9389C45.0957 36.6665 45.7682 38.4322 46.3488 40.2289C44.5005 40.6451 42.6317 40.9643 40.75 41.1851C41.385 40.1776 41.9996 39.1576 42.5938 38.1251ZM44.3088 28.9914C43.7554 27.9372 43.18 26.8956 42.5825 25.8664C41.9992 24.8514 41.3913 23.8489 40.7588 22.8589C42.6725 23.1014 44.5088 23.4239 46.23 23.8176C45.6766 25.5733 45.0354 27.3001 44.3088 28.9914ZM32.0288 15.5601C33.2769 16.924 34.4555 18.35 35.56 19.8326C33.1975 19.7201 30.8333 19.7201 28.4675 19.8326C29.6338 18.2901 30.8275 16.8589 32.0288 15.5601ZM18.2075 8.23264C20.215 7.06764 24.6538 8.73264 29.3325 12.8914C29.6313 13.1576 29.9325 13.4364 30.2325 13.7251C28.3917 15.7228 26.6855 17.8404 25.125 20.0639C22.4316 20.3066 19.7568 20.7241 17.1175 21.3139C16.965 20.7006 16.8275 20.0831 16.705 19.4614C15.5737 13.6826 16.3225 9.32639 18.2075 8.23264ZM15.2812 39.7139C14.7812 39.5714 14.2875 39.4168 13.8 39.2501C10.875 38.2501 8.45875 36.9451 6.8 35.5239C5.315 34.2501 4.5625 32.9789 4.5625 31.9489C4.5625 29.7601 7.82 26.9676 13.2525 25.0739C13.935 24.8364 14.6233 24.6193 15.3175 24.4226C16.1243 27.0155 17.1014 29.5523 18.2425 32.0164C17.0878 34.5146 16.0986 37.086 15.2812 39.7139ZM29.1725 51.4226C26.8438 53.4626 24.5112 54.9089 22.455 55.6376C20.6075 56.2914 19.1362 56.3101 18.2475 55.7964C16.355 54.7026 15.5675 50.4789 16.6413 44.8139C16.7688 44.1472 16.9146 43.4806 17.0788 42.8139C19.7444 43.3881 22.4461 43.7803 25.165 43.9876C26.7407 46.2228 28.461 48.3523 30.315 50.3626C29.9425 50.7289 29.5613 51.0814 29.1725 51.4226ZM32.1 48.5201C30.885 47.2064 29.6725 45.7526 28.49 44.1901C29.6392 44.2351 30.8092 44.2576 32 44.2576C33.2225 44.2576 34.4325 44.2314 35.625 44.1776C34.5245 45.6841 33.348 47.1335 32.1 48.5201ZM47.665 52.0939C47.3075 54.0239 46.5887 55.3114 45.7 55.8264C43.8088 56.9239 39.765 55.4976 35.405 51.7364C34.905 51.3064 34.405 50.8451 33.8963 50.3614C35.7141 48.3432 37.3941 46.2051 38.925 43.9614C41.659 43.7298 44.3737 43.31 47.05 42.7051C47.1725 43.2001 47.2808 43.6851 47.375 44.1601C47.9762 47.1976 48.0625 49.9451 47.665 52.0939ZM49.84 39.2639C49.5125 39.3726 49.175 39.4776 48.8325 39.5801C47.9933 36.9751 46.9781 34.43 45.7938 31.9626C46.9336 29.5282 47.9092 27.02 48.7137 24.4551C49.3275 24.6339 49.9238 24.8214 50.4975 25.0201C56.05 26.9351 59.4375 29.7701 59.4375 31.9489C59.4375 34.2739 55.7788 37.2914 49.84 39.2639Z" fill="black"/>
<path d="M32.0001 37.3188C33.0639 37.3223 34.1048 37.01 34.991 36.4215C35.8772 35.833 36.5689 34.9947 36.9784 34.0129C37.3879 33.0311 37.4969 31.9498 37.2914 30.906C37.086 29.8622 36.5755 28.9028 35.8245 28.1494C35.0735 27.3959 34.1158 26.8822 33.0727 26.6734C32.0295 26.4646 30.9479 26.57 29.9647 26.9763C28.9816 27.3826 28.1411 28.0715 27.5497 28.9558C26.9583 29.8401 26.6426 30.88 26.6426 31.9438C26.6411 32.6486 26.7786 33.3468 27.0471 33.9984C27.3156 34.6501 27.7099 35.2424 28.2074 35.7416C28.705 36.2408 29.296 36.637 29.9468 36.9077C30.5976 37.1783 31.2953 37.318 32.0001 37.3188Z" fill="black"/>
</svg>
