<svg width="96" height="96" viewBox="0 0 96 96" fill="none" xmlns="http://www.w3.org/2000/svg">
<path d="M46.1599 27.6636C56.0246 27.475 64.6856 29.104 72.144 32.5487C73.9849 33.3524 75.7305 34.366 77.3831 35.593C79.035 36.82 80.5219 38.2724 81.8437 39.9471C83.1648 41.6234 84.0386 43.4054 84.4639 45.2927C84.8884 47.1809 84.8407 49.234 84.3225 51.4525C81.4901 59.2409 73.4419 64.5044 60.1792 67.2415C56.3557 67.9026 52.5915 68.2679 48.8861 68.3387C45.1804 68.4092 41.4521 68.1745 37.6995 67.6307C33.9472 67.0885 30.2891 66.0974 26.7251 64.657C23.1611 63.2177 19.9391 61.3889 17.061 59.1696C14.1337 57.0452 12.2932 54.1431 11.5384 50.461C10.7827 46.7792 11.514 43.4515 13.7332 40.4781C19.8679 32.644 30.6776 28.3709 46.1599 27.6636ZM47.151 32.6192C40.779 32.7606 34.9489 33.7289 29.6629 35.5221C20.3175 38.9676 15.8569 43.4762 16.2814 49.0454C16.6582 50.5086 17.3077 51.8661 18.2284 53.1164C19.1486 54.3674 20.1506 55.4061 21.2374 56.2311C22.3226 57.0576 23.6557 57.8485 25.2375 58.6034C26.8185 59.359 28.2221 59.9485 29.4502 60.3734C30.6772 60.7979 32.0929 61.2475 33.6986 61.7189C38.4652 62.758 43.1614 63.3239 47.7877 63.4176C52.4134 63.5132 57.1335 62.9575 61.9481 61.7541C66.7627 60.5496 71.0816 58.651 74.9047 56.0541C77.2646 54.5916 78.7867 52.5265 79.4715 49.8591C80.1551 47.1932 79.5532 44.7734 77.6662 42.6017C75.8257 40.6675 73.6894 39.0156 71.259 37.6454C68.8271 36.2777 66.2317 35.2502 63.4706 34.5651C60.7095 33.8822 58.0421 33.3974 55.47 33.1142C52.8971 32.8315 50.1247 32.6669 47.151 32.6192Z" fill="black"/>
<path d="M29.3801 56.3372L32.2826 41.4692H39.0795C42.0056 41.659 43.4693 43.0517 43.4693 45.6471C43.4693 47.7704 42.7845 49.459 41.4161 50.7092C40.0466 51.9602 38.5365 52.5392 36.885 52.4432H33.5576L32.8493 56.3376H29.3801V56.3372ZM34.3361 49.6825H36.531C37.5221 49.5887 38.301 49.2816 38.8673 48.7622C39.4335 48.2429 39.7403 47.275 39.7875 45.859C39.7875 44.7734 39.0551 44.2307 37.5926 44.2307H35.2564L34.3361 49.6825Z" fill="black"/>
<path d="M42.4076 52.4433L45.3105 37.5757H48.7792L48.0712 41.4697H51.3993C52.7677 41.5653 53.7588 41.9302 54.3727 42.5673C54.9855 43.2041 55.1981 43.9957 55.0098 44.9396L53.7356 52.4437H50.0538L51.3993 45.6476C51.4931 45.1289 51.4811 44.7626 51.3637 44.5499C51.2452 44.3377 50.8792 44.2312 50.2661 44.2312H47.505L45.8763 52.4433H42.4076Z" fill="black"/>
<path d="M53.9482 56.3372L56.8507 41.4692H63.6476C66.5737 41.659 68.0374 43.0517 68.0374 45.6471C68.0374 47.7704 67.3526 49.459 65.9839 50.7092C64.6144 51.9602 63.1042 52.5392 61.4527 52.4432H58.125L57.4166 56.3376H53.9482V56.3372ZM58.9042 49.6825H61.0991C62.0902 49.5887 62.8691 49.2816 63.4354 48.7622C64.0016 48.2429 64.3084 47.275 64.3556 45.859C64.3556 44.7734 63.6232 44.2307 62.1607 44.2307H59.8245L58.9042 49.6825Z" fill="black"/>
</svg>
